<svg width="24" height="24" viewBox="0 0 24 24" fill="none" xmlns="http://www.w3.org/2000/svg">
<path d="M20.6479 2.67432L13.1526 8.24117L14.5387 4.9568L20.6479 2.67432Z" fill="#E2761B" stroke="#E2761B" stroke-linecap="round" stroke-linejoin="round"/>
<path d="M3.34443 2.67432L10.7795 8.2939L9.46119 4.9568L3.34443 2.67432ZM17.9508 15.5783L15.9546 18.6367L20.2258 19.8118L21.4537 15.6461L17.9508 15.5783ZM2.55347 15.6461L3.77381 19.8118L8.04499 18.6367L6.04876 15.5783L2.55347 15.6461Z" fill="#E4761B" stroke="#E4761B" stroke-linecap="round" stroke-linejoin="round"/>
<path d="M7.80422 10.411L6.61401 12.2114L10.8551 12.3997L10.7044 7.84228L7.80422 10.411ZM16.1884 10.411L13.2505 7.78955L13.1526 12.3997L17.3861 12.2114L16.1884 10.411ZM8.04528 18.637L10.5914 17.3941L8.39179 15.6766L8.04528 18.637ZM13.4012 17.3941L15.9549 18.637L15.6008 15.6766L13.4012 17.3941Z" fill="#E4761B" stroke="#E4761B" stroke-linecap="round" stroke-linejoin="round"/>
<path d="M15.9545 18.637L13.4009 17.394L13.6042 19.0588L13.5816 19.7594L15.9545 18.637ZM8.04492 18.637L10.4178 19.7594L10.4027 19.0588L10.5911 17.394L8.04492 18.637Z" fill="#D7C1B3" stroke="#D7C1B3" stroke-linecap="round" stroke-linejoin="round"/>
<path d="M10.4556 14.5764L8.3313 13.9511L9.83036 13.2656L10.4556 14.5764ZM13.5366 14.5764L14.1618 13.2656L15.6684 13.9511L13.5366 14.5764Z" fill="#233447" stroke="#233447" stroke-linecap="round" stroke-linejoin="round"/>
<path d="M8.04531 18.6365L8.40689 15.5782L6.04907 15.646L8.04531 18.6365ZM15.5933 15.5782L15.9549 18.6365L17.9511 15.646L15.5933 15.5782ZM17.3862 12.2109L13.1527 12.3993L13.5444 14.5763L14.1696 13.2656L15.6762 13.951L17.3862 12.2109ZM8.33156 13.951L9.83815 13.2656L10.4559 14.5763L10.8551 12.3993L6.61404 12.2109L8.33156 13.951Z" fill="#CD6116" stroke="#CD6116" stroke-linecap="round" stroke-linejoin="round"/>
<path d="M6.61401 12.2109L8.39179 15.6761L8.33153 13.951L6.61401 12.2109ZM15.6762 13.951L15.6008 15.6761L17.3861 12.2109L15.6762 13.951ZM10.8551 12.3993L10.4558 14.5763L10.953 17.145L11.066 13.7627L10.8551 12.3993ZM13.1526 12.3993L12.9492 13.7552L13.0396 17.145L13.5443 14.5763L13.1526 12.3993Z" fill="#E4751F" stroke="#E4751F" stroke-linecap="round" stroke-linejoin="round"/>
<path d="M13.5441 14.5764L13.0394 17.1451L13.401 17.3937L15.6006 15.6762L15.6759 13.9512L13.5441 14.5764ZM8.3313 13.9512L8.39156 15.6762L10.5912 17.3937L10.9528 17.1451L10.4556 14.5764L8.3313 13.9512Z" fill="#F6851B" stroke="#F6851B" stroke-linecap="round" stroke-linejoin="round"/>
<path d="M13.5816 19.7586L13.6042 19.0581L13.4159 18.8924H10.576L10.4027 19.0581L10.4178 19.7586L8.04492 18.6362L8.87355 19.3142L10.5534 20.4818H13.4385L15.1259 19.3142L15.9545 18.6362L13.5816 19.7586Z" fill="#C0AD9E" stroke="#C0AD9E" stroke-linecap="round" stroke-linejoin="round"/>
<path d="M13.4007 17.3931L13.0391 17.1445H10.9525L10.5909 17.3931L10.4026 19.0579L10.5758 18.8922H13.4158L13.6041 19.0579L13.4007 17.3931Z" fill="#161616" stroke="#161616" stroke-linecap="round" stroke-linejoin="round"/>
<path d="M20.964 8.60275L21.6043 5.52931L20.6476 2.67432L13.4009 8.05285L16.1881 10.4107L20.1278 11.5632L21.0017 10.5463L20.625 10.2751L21.2277 9.72516L20.7606 9.36358L21.3632 8.90407L20.964 8.60275ZM2.39526 5.52931L3.03556 8.60275L2.62879 8.90407L3.23142 9.36358L2.77191 9.72516L3.37455 10.2751L2.9979 10.5463L3.86419 11.5632L7.80393 10.4107L10.5911 8.05285L3.34442 2.67432L2.39526 5.52931Z" fill="#763D16" stroke="#763D16" stroke-linecap="round" stroke-linejoin="round"/>
<path d="M20.1279 11.5634L16.1881 10.4109L17.3859 12.2113L15.6005 15.6764L17.9508 15.6463H21.4537L20.1279 11.5634ZM7.80394 10.4109L3.8642 11.5634L2.55347 15.6463H6.04876L8.39151 15.6764L6.61373 12.2113L7.80394 10.4109ZM13.1523 12.3996L13.4009 8.05308L14.5459 4.95703H9.46119L10.5911 8.05308L10.8548 12.3996L10.9452 13.7706L10.9527 17.1454H13.0393L13.0544 13.7706L13.1523 12.3996Z" fill="#F6851B" stroke="#F6851B" stroke-linecap="round" stroke-linejoin="round"/>
</svg>
